<svg width="16" height="17" viewBox="0 0 16 17" fill="none" xmlns="http://www.w3.org/2000/svg">
<path d="M7.99992 1.8335C9.66744 3.65906 10.6151 6.02819 10.6666 8.50016C10.6151 10.9721 9.66744 13.3413 7.99992 15.1668M7.99992 1.8335C6.3324 3.65906 5.38475 6.02819 5.33325 8.50016C5.38475 10.9721 6.3324 13.3413 7.99992 15.1668M7.99992 1.8335C4.31802 1.8335 1.33325 4.81826 1.33325 8.50016C1.33325 12.1821 4.31802 15.1668 7.99992 15.1668M7.99992 1.8335C11.6818 1.8335 14.6666 4.81826 14.6666 8.50016C14.6666 12.1821 11.6818 15.1668 7.99992 15.1668M1.6666 6.50016H14.3333M1.66659 10.5002H14.3333" stroke="white" stroke-width="1.3" stroke-linecap="round" stroke-linejoin="round"/>
</svg>
